<svg xmlns="http://www.w3.org/2000/svg" width="128" height="128" fill="none" viewBox="0 0 128 128" id="verification">
  <path stroke="#000" stroke-width="4" d="M59.7479 9.8731C61.7024 6.71385 66.2976 6.71385 68.2521 9.87309L75.9041 22.2419C77.1206 24.2082 79.5267 25.084 81.7225 24.3596L95.5348 19.8032C99.0628 18.6394 102.583 21.5931 102.049 25.2696L99.9607 39.6632C99.6286 41.9515 100.909 44.169 103.057 45.0255L116.566 50.4135C120.017 51.7897 120.815 56.315 118.043 58.7884L107.191 68.472C105.466 70.0115 105.021 72.5331 106.116 74.5698L113.001 87.381C114.76 90.6533 112.462 94.6328 108.749 94.7459L94.2116 95.1883C91.9004 95.2586 89.9389 96.9045 89.4683 99.1684L86.5081 113.408C85.752 117.046 81.434 118.617 78.5169 116.317L67.0959 107.311C65.2803 105.88 62.7197 105.88 60.9041 107.311L49.4832 116.317C46.566 118.617 42.248 117.046 41.4919 113.408L38.5317 99.1684C38.0611 96.9045 36.0996 95.2586 33.7885 95.1883L19.2508 94.7459C15.5375 94.6328 13.2399 90.6533 14.9987 87.3811L21.8844 74.5698C22.979 72.5331 22.5344 70.0115 20.8092 68.472L9.95704 58.7884C7.18519 56.3151 7.98313 51.7897 11.4338 50.4135L24.9434 45.0255C27.0911 44.169 28.3714 41.9515 28.0393 39.6632L25.9506 25.2696C25.4171 21.5931 28.9372 18.6394 32.4652 19.8032L46.2775 24.3596C48.4733 25.084 50.8794 24.2082 52.0959 22.2419L59.7479 9.8731Z"></path>
  <path stroke="#4B9700" stroke-linecap="round" stroke-linejoin="round" stroke-width="4" d="M44 65.8204L56.2837 78.1542C57.8471 79.724 60.3887 79.724 61.9521 78.1542L88 52"></path>
</svg>
